<svg xmlns="http://www.w3.org/2000/svg" viewBox="0 0 278.57 250.82"><defs><style>.cls-1,.cls-2{fill:#d9f0f3;}.cls-2{stroke:#ed1c24;stroke-miterlimit:10;}</style></defs><title>Asset 6</title><g id="Layer_2" data-name="Layer 2"><g id="Layer_1-2" data-name="Layer 1"><path class="cls-1" d="M250.84,125.64A125.2,125.2,0,0,1,52.06,226.92L49.55,225a125.67,125.67,0,0,1-20.49-19.77c1.66-1.36,3.47-2.82,5.47-4.39a117.63,117.63,0,0,0,201-77.79l1.43-1.15a150,150,0,0,0,12.93-11.63A127.09,127.09,0,0,1,250.84,125.64Z"/><path class="cls-1" d="M31.35,197.55q-2.67,2-5.25,4A124.62,124.62,0,0,1,.47,125.64c0-1,0-2,0-3A117.19,117.19,0,0,0,31.35,197.55Z"/><path class="cls-2" d="M.51,122.59a.09.09,0,0,1,0-.07"/><path class="cls-1" d="M248.47,101.3h0c-1.55,1.84-2.63,2.94-2.82,3.13-3.17,3.2-6.54,6.4-10.06,9.61A117.62,117.62,0,0,0,122.42.5c1.07,0,2.15,0,3.23,0A125.16,125.16,0,0,1,234.4,63.6L238.27,71c.08.15.16.29.23.44A124.13,124.13,0,0,1,248.47,101.3Z"/><line class="cls-2" x1="234.41" y1="63.6" x2="234.4" y2="63.6"/><line class="cls-2" x1="122.42" y1="0.5" x2="122.37" y2="0.5"/><path class="cls-1" d="M122.37.5A124.59,124.59,0,0,0,50.7,25.37,126.32,126.32,0,0,0,26.2,49.59,124.52,124.52,0,0,0,.51,122.52c-.07-1.49-.09-3-.09-4.48A117.46,117.46,0,0,1,32.7,37.09q2.13-2.25,4.36-4.36h0A117.47,117.47,0,0,1,118,.42C119.49.42,120.93.44,122.37.5Z"/><path class="cls-1" d="M50.43,21.78A24.23,24.23,0,1,0,22.59,49.29,118.11,118.11,0,0,1,32.7,37.09a7.72,7.72,0,0,1-2.9.56,7.81,7.81,0,1,1,7.27-4.93A117.78,117.78,0,0,1,50.43,21.78ZM7.32,18.51A3.51,3.51,0,1,1,10.83,22,3.5,3.5,0,0,1,7.32,18.51Zm8.3,24.24A4.78,4.78,0,1,1,20.4,38,4.78,4.78,0,0,1,15.62,42.75ZM25.1,15a4.71,4.71,0,1,1,4.7-4.71A4.7,4.7,0,0,1,25.1,15Zm16-1a3.51,3.51,0,1,1-3.5,3.51A3.52,3.52,0,0,1,41.12,14.05Z"/><path class="cls-1" d="M253.19,106.9c-1.12,1.2-2.22,2.34-3.28,3.41A150,150,0,0,1,237,121.94l-1.43,1.15c-46.24,36.71-84.41,58.64-84.41,58.64-27.23,15.65-53.35,28.44-53.78,27.64s12.77-7.94,48.68-29.77c0,0,52.57-31.94,89.55-65.55,3.52-3.21,6.89-6.41,10.06-9.61.19-.19,1.27-1.29,2.82-3.13h0A75.34,75.34,0,0,0,254,93.71c4.63-7.2,9.86-15.38,7.14-20.15-2.59-4.53-12.07-5.5-22.68-2.16-.07-.15-.15-.29-.23-.44-1.2-2.5-2.49-5-3.86-7.36,1.63-.45,37.15-10,43.25.93C283.34,74.69,260.83,98.73,253.19,106.9Z"/><path class="cls-1" d="M49.55,225l2.51,1.88c-37.59,8-47,5.35-48.67,1.47-2.31-5.36,8.9-16.12,22.71-26.85q2.58-2,5.25-4c14-10.42,29.16-20.13,35.29-24.06,15.72-10.06,29.25-17.42,38.42-22.16-13,8.19-32.66,21.11-56,38.43-5.68,4.22-10.49,7.9-14.57,11.12-2,1.57-3.81,3-5.47,4.39-15.37,12.63-16.64,16.3-15.78,18.13,1.14,2.43,7.14,4,31.36-2C46.27,222.6,47.91,223.83,49.55,225Z"/><path class="cls-1" d="M108.82,148.76c.09.18,1.59-.57,1.59-.57h0l12.47-7-.26-.49-12.48,7S108.72,148.59,108.82,148.76Z"/><path class="cls-1" d="M153.59,123.63c1.73,3.23,3.91,5.5,5.26,5.63L163,127c-1.36-.13-3.54-2.41-5.26-5.63s-2.44-6.33-1.82-7.57l-4.11,2.31C151.15,117.31,151.86,120.41,153.59,123.63Z"/><path class="cls-1" d="M121.07,141.89a5.4,5.4,0,0,0,5,3h0l13.33-7.48a18.12,18.12,0,0,1-3-4.15,18.89,18.89,0,0,1-1.83-4.79L121.23,136A5.76,5.76,0,0,0,121.07,141.89Z"/><path class="cls-1" d="M136.88,133c2,3.65,4.53,6,5.76,5.35h0l4.39-2.46c-1.36-.14-3.54-2.41-5.27-5.64s-2.43-6.32-1.81-7.56l-4.42,2.48C134.33,125.86,134.92,129.37,136.88,133Z"/><path class="cls-1" d="M147.94,126.8c1.73,3.23,3.91,5.5,5.26,5.63l4.53-2.53c-1.36-.14-3.54-2.41-5.27-5.63s-2.43-6.33-1.81-7.57l-4.53,2.54C145.51,120.48,146.21,123.58,147.94,126.8Z"/><path class="cls-1" d="M142.92,129.62c1.73,3.22,3.91,5.5,5.26,5.63l3.9-2.18c-1.36-.14-3.54-2.41-5.27-5.63s-2.43-6.33-1.81-7.57l-3.9,2.19C140.48,123.3,141.19,126.4,142.92,129.62Z"/><path class="cls-1" d="M163.17,118.25c-2-3.64-4.52-6-5.73-5.36s-.61,4.18,1.35,7.82,4.51,6.06,5.73,5.37S165.13,121.9,163.17,118.25Zm.38,6c-.88.48-2.74-1.26-4.16-3.9s-1.86-5.18-1-5.68,2.74,1.25,4.16,3.89S164.43,123.78,163.55,124.28Z"/><path class="cls-1" d="M140.62,85.38,119.9,97l13.76,25.66,9.81-5.51,1.32-.74,9.6-5.39Zm10.65,21.15-3.46,1.94-1.9-3.54,3.46-1.94ZM139,103.31l1.9,3.54-3.46,1.94-1.9-3.54Zm-3.82,1.26-1.9-3.55,3.45-1.94,1.91,3.55Zm4.4-1.6,3.47-1.94,1.9,3.55-3.46,2Zm-.35-.67-1.91-3.55,3.46-1.94,1.9,3.55ZM137,98.07l-1.91-3.54,3.47-2,1.9,3.55Zm-.59.33-3.46,1.94L131,96.79l3.46-1.93Zm-4,2.27-3.45,1.94L127,99.07l3.46-1.94Zm.37.68,1.9,3.55-3.46,1.94-1.9-3.55Zm2.27,4.22,1.89,3.56-3.45,1.93-1.91-3.54Zm2.26,4.23,1.9,3.55-3.46,1.94-1.9-3.55Zm.59-.33,3.45-1.94,1.91,3.54-3.46,2Zm4-2.27,3.46-2,1.9,3.56-3.45,1.94Zm7.15-4.89-3.47,1.94-1.9-3.54,3.46-1.95Zm-2.27-4.23L143.28,100l-1.9-3.54,3.45-1.94Zm-2.26-4.22L141,95.8l-1.9-3.54,3.46-1.94Zm-4.18-7.77,1.9,3.54-3.45,2L136.85,88Zm-4,2.27,1.9,3.55-3.46,1.93-1.9-3.54Zm-4,2.27,1.91,3.55-3.47,1.94-1.89-3.55Zm-4,2.27,1.9,3.54-3.46,2-1.91-3.54Zm-7.51,4.21,3.46-1.94L126,98.72l-3.47,1.94Zm2.27,4.23,3.45-2,1.91,3.55-3.46,2Zm2.26,4.22,3.46-1.94,1.91,3.55-3.47,1.94Zm2.27,4.23,3.45-1.94,1.91,3.54-3.46,1.94Zm2.27,4.22,3.45-1.94,1.91,3.55-3.47,1.94Zm4.16,7.77-1.9-3.54,3.46-1.94,1.9,3.54Zm4.05-2.26L136,116,139.5,114l1.9,3.55Zm4-2.28-1.9-3.54,3.46-2,1.91,3.55ZM146,115l-1.9-3.55,3.46-1.94,1.9,3.55Zm2.15-5.82,3.45-1.94,1.91,3.54-3.47,2Z"/><path class="cls-1" d="M164.4,129.71l-9.58,5.38-1.17.65-.15.09-9.81,5.51L157.44,167l20.73-11.63ZM175.14,151,171.68,153l-1.9-3.55,3.46-1.94Zm-12.25-3.23,1.89,3.55-3.46,1.94-1.9-3.55Zm-3.83,1.26-1.9-3.54,3.46-1.94,1.9,3.54Zm4.41-1.59,3.46-1.94,1.9,3.54L165.37,151Zm-.36-.68-1.9-3.54,3.45-1.94,1.9,3.54Zm-2.27-4.22L158.93,139l3.47-1.94,1.9,3.55Zm-.59.32-3.46,1.95-1.9-3.54,3.46-1.95Zm-4.05,2.28-3.45,1.94-1.9-3.55,3.45-1.94Zm.37.67,1.91,3.55L155,151.35l-1.9-3.55Zm2.27,4.23,1.9,3.55-3.46,1.94-1.9-3.55Zm2.26,4.23,1.91,3.54-3.47,1.94-1.89-3.54Zm.59-.33,3.46-1.95,1.9,3.55-3.46,1.95Zm4.05-2.27,3.45-1.94,1.91,3.54-3.46,1.94Zm7.14-4.89-3.47,1.94-1.9-3.55,3.47-1.94Zm-2.27-4.23-3.46,1.94-1.9-3.54,3.45-2Zm-2.26-4.22-3.47,1.94-1.9-3.55,3.46-1.94Zm-4.18-7.77,1.91,3.54-3.46,1.94-1.9-3.54Zm-4,2.26,1.9,3.55-3.46,2-1.9-3.55Zm-4,2.28,1.9,3.54-3.47,1.94-1.89-3.54ZM152,137.41l1.9,3.55-3.46,1.94-1.91-3.55Zm-7.51,4.22,3.47-1.95,1.9,3.54-3.47,1.95Zm2.27,4.22,3.46-1.94,1.9,3.54-3.46,1.94Zm2.26,4.22,3.47-1.94,1.9,3.54L151,153.61Zm2.27,4.23,3.46-2,1.9,3.55-3.45,1.94Zm2.27,4.22,3.46-1.94,1.9,3.54-3.46,1.94Zm4.17,7.77-1.91-3.55,3.46-1.94,1.9,3.55Zm4-2.27-1.9-3.54,3.46-1.95,1.9,3.55Zm4.05-2.27L164,158.2l3.47-1.94,1.9,3.55Zm4-2.28-1.9-3.54,3.46-1.94,1.91,3.54Zm2.15-5.81,3.46-1.95,1.9,3.56-3.47,1.94Z"/><polygon class="cls-1" points="153.5 135.84 154.81 135.09 153.34 132.35 152.03 133.1 153.5 135.84"/><path class="cls-1" d="M107.81,149.33a1.19,1.19,0,0,1,.45-1.6,1.15,1.15,0,0,1,1.57.47,1.2,1.2,0,0,1-.46,1.6A1.14,1.14,0,0,1,107.81,149.33Z"/><polygon class="cls-1" points="143.48 117.16 144.8 116.42 146.27 119.16 144.95 119.9 143.48 117.16"/></g></g></svg>